<svg width="40" height="40" viewBox="0 0 40 40" fill="none" xmlns="http://www.w3.org/2000/svg">
<g clip-path="url(#clip0_32_231)">
<path d="M22.444 12.684C22.444 12.7907 22.4173 12.892 22.364 12.988C22.3106 13.0734 22.2253 13.116 22.108 13.116C21.9373 13.116 21.82 13.0787 21.756 13.004C21.7026 12.9294 21.6546 12.8227 21.612 12.684C21.58 12.5347 21.5266 12.3534 21.452 12.14C21.388 11.916 21.3133 11.6974 21.228 11.484C21.1533 11.26 21.0733 11.0894 20.988 10.972C20.9453 10.908 20.8973 10.8494 20.844 10.796C20.7906 10.732 20.7373 10.6734 20.684 10.62C20.6093 10.524 20.476 10.46 20.284 10.428C20.092 10.3854 19.8946 10.364 19.692 10.364C19.4893 10.3534 19.3293 10.348 19.212 10.348C19.0733 10.348 18.924 10.348 18.764 10.348C18.604 10.348 18.4653 10.3854 18.348 10.46C18.2306 10.524 18.1666 10.652 18.156 10.844C18.1453 11.2067 18.14 11.58 18.14 11.964C18.14 12.3374 18.14 12.7107 18.14 13.084C18.14 14.3 18.14 15.516 18.14 16.732C18.1506 17.948 18.156 19.164 18.156 20.38C18.156 20.508 18.172 20.6574 18.204 20.828C18.2466 20.9987 18.3533 21.084 18.524 21.084C18.684 21.084 18.8386 21.0787 18.988 21.068C19.148 21.0574 19.308 21.052 19.468 21.052C19.5533 21.052 19.6173 21.0894 19.66 21.164C19.7026 21.228 19.724 21.292 19.724 21.356C19.724 21.548 19.6333 21.644 19.452 21.644C19.3346 21.644 19.212 21.6387 19.084 21.628C18.9666 21.6174 18.8493 21.6067 18.732 21.596C18.5293 21.5747 18.3266 21.564 18.124 21.564C17.9213 21.564 17.7133 21.564 17.5 21.564C17.148 21.564 16.796 21.564 16.444 21.564C16.092 21.564 15.74 21.5747 15.388 21.596C15.26 21.6067 15.1266 21.6174 14.988 21.628C14.86 21.6387 14.732 21.644 14.604 21.644C14.508 21.644 14.4333 21.612 14.38 21.548C14.3266 21.484 14.3 21.4094 14.3 21.324C14.3 21.2067 14.348 21.1374 14.444 21.116C14.54 21.084 14.6306 21.068 14.716 21.068C14.8333 21.068 14.94 21.0734 15.036 21.084C15.1426 21.084 15.2493 21.084 15.356 21.084C15.6333 21.084 15.788 21.02 15.82 20.892C15.8626 20.764 15.884 20.5827 15.884 20.348V11.42C15.884 11.004 15.8626 10.7267 15.82 10.588C15.7773 10.4387 15.6653 10.364 15.484 10.364C15.3026 10.3534 15.004 10.348 14.588 10.348C14.4493 10.348 14.2573 10.3534 14.012 10.364C13.7773 10.3747 13.6013 10.412 13.484 10.476C13.3453 10.5507 13.2333 10.652 13.148 10.78C13.0626 10.8974 12.9933 11.0307 12.94 11.18C12.8546 11.4254 12.7693 11.676 12.684 11.932C12.6093 12.188 12.5293 12.4387 12.444 12.684C12.4013 12.8334 12.348 12.9454 12.284 13.02C12.22 13.084 12.1026 13.116 11.932 13.116C11.7293 13.116 11.628 13.0094 11.628 12.796C11.628 12.5187 11.6546 12.204 11.708 11.852C11.772 11.4894 11.8093 11.1534 11.82 10.844C11.8306 10.6734 11.8306 10.5027 11.82 10.332C11.82 10.1507 11.836 9.98001 11.868 9.82001C11.8786 9.74536 11.916 9.70801 11.98 9.70801C12.0973 9.70801 12.2146 9.72401 12.332 9.75601C12.46 9.78801 12.5826 9.81466 12.7 9.83601C12.828 9.84666 12.956 9.85736 13.084 9.86801C13.2226 9.86801 13.3613 9.87336 13.5 9.88401C14.0653 9.89466 14.652 9.90536 15.26 9.91601C15.8786 9.91601 16.4653 9.91601 17.02 9.91601C17.6493 9.91601 18.3106 9.91066 19.004 9.90001C19.6973 9.88936 20.3586 9.88401 20.988 9.88401C21.052 9.88401 21.116 9.88401 21.18 9.88401C21.2546 9.88401 21.324 9.87866 21.388 9.86801C21.5053 9.84666 21.6173 9.81466 21.724 9.77201C21.8413 9.72936 21.9586 9.70801 22.076 9.70801C22.1293 9.70801 22.1666 9.73466 22.188 9.78801C22.22 9.93736 22.2413 10.1134 22.252 10.316C22.2626 10.508 22.2733 10.6787 22.284 10.828C22.316 11.1267 22.348 11.436 22.38 11.756C22.4226 12.0654 22.444 12.3747 22.444 12.684Z" fill="url(#paint0_linear_32_231)"/>
<path d="M30.348 30.712C30.348 30.936 30.2573 31.048 30.076 31.048C29.692 31.048 29.308 31.0427 28.924 31.032C28.5506 31.0214 28.1773 31.016 27.804 31.016C27.4413 31.016 27.0786 31.0214 26.716 31.032C26.3533 31.0534 25.9906 31.064 25.628 31.064C25.5213 31.064 25.4466 31.032 25.404 30.968C25.3613 30.8934 25.34 30.8134 25.34 30.728C25.34 30.6427 25.372 30.5787 25.436 30.536C25.5106 30.4827 25.5853 30.456 25.66 30.456C25.756 30.456 25.852 30.4614 25.948 30.472C26.044 30.4827 26.14 30.488 26.236 30.488C26.2573 30.488 26.284 30.488 26.316 30.488C26.348 30.488 26.3746 30.488 26.396 30.488C26.5773 30.4667 26.6733 30.3654 26.684 30.184C26.7053 29.992 26.716 29.832 26.716 29.704V21.384C26.108 22.8987 25.4893 24.408 24.86 25.912C24.2413 27.4054 23.6333 28.9147 23.036 30.44H21.788C21.18 28.8614 20.5506 27.2934 19.9 25.736C19.26 24.1787 18.6306 22.6107 18.012 21.032C18.012 22.4934 18.0226 23.9547 18.044 25.416C18.0653 26.8667 18.076 28.3227 18.076 29.784C18.076 29.912 18.0813 30.0667 18.092 30.248C18.1133 30.4187 18.2146 30.504 18.396 30.504C18.5346 30.504 18.668 30.4987 18.796 30.488C18.924 30.4774 19.0573 30.472 19.196 30.472C19.2706 30.472 19.3346 30.504 19.388 30.568C19.4413 30.6214 19.468 30.6854 19.468 30.76C19.468 30.8134 19.4466 30.8774 19.404 30.952C19.3613 31.016 19.308 31.048 19.244 31.048C19.052 31.048 18.86 31.0427 18.668 31.032C18.476 31.0214 18.284 31.016 18.092 31.016C17.7506 31.016 17.404 31.0214 17.052 31.032C16.7 31.0427 16.3533 31.048 16.012 31.048C15.9053 31.048 15.836 31.0214 15.804 30.968C15.772 30.904 15.756 30.824 15.756 30.728C15.756 30.6427 15.788 30.5787 15.852 30.536C15.9266 30.4934 15.996 30.472 16.06 30.472C16.156 30.472 16.252 30.4774 16.348 30.488C16.4546 30.4987 16.556 30.504 16.652 30.504C16.8333 30.504 16.9613 30.4827 17.036 30.44C17.1213 30.3867 17.164 30.2587 17.164 30.056C17.164 28.4347 17.1693 26.8134 17.18 25.192C17.2013 23.56 17.212 21.9334 17.212 20.312C17.212 20.1414 17.18 20.0187 17.116 19.944C17.0626 19.8587 16.9453 19.816 16.764 19.816C16.6573 19.816 16.5506 19.8214 16.444 19.832C16.3373 19.8427 16.2306 19.848 16.124 19.848C16.0386 19.848 15.964 19.816 15.9 19.752C15.836 19.688 15.804 19.6134 15.804 19.528C15.804 19.3254 15.9106 19.224 16.124 19.224C16.38 19.224 16.636 19.2294 16.892 19.24C17.1586 19.2507 17.42 19.256 17.676 19.256C17.9853 19.256 18.2946 19.256 18.604 19.256C18.924 19.256 19.2386 19.24 19.548 19.208L23.116 28.04C23.692 26.5787 24.2946 25.128 24.924 23.688C25.564 22.2374 26.124 20.76 26.604 19.256C26.8493 19.2667 27.0946 19.2774 27.34 19.288C27.596 19.288 27.852 19.288 28.108 19.288C28.4386 19.288 28.7693 19.2774 29.1 19.256C29.4413 19.2347 29.7773 19.224 30.108 19.224C30.1933 19.224 30.252 19.2614 30.284 19.336C30.316 19.4 30.332 19.464 30.332 19.528C30.332 19.592 30.316 19.6667 30.284 19.752C30.252 19.8267 30.1933 19.864 30.108 19.864C29.9586 19.864 29.804 19.864 29.644 19.864C29.4946 19.8534 29.3453 19.848 29.196 19.848C29.0893 19.848 29.0093 19.896 28.956 19.992C28.9133 20.0774 28.892 20.168 28.892 20.264C28.892 20.8827 28.8866 21.512 28.876 22.152C28.876 22.7814 28.876 23.4107 28.876 24.04C28.876 24.9787 28.876 25.9174 28.876 26.856C28.8866 27.7947 28.892 28.7334 28.892 29.672C28.892 29.768 28.8973 29.88 28.908 30.008C28.9293 30.136 28.9666 30.2534 29.02 30.36C29.084 30.456 29.18 30.504 29.308 30.504C29.436 30.504 29.564 30.4987 29.692 30.488C29.82 30.4774 29.9533 30.472 30.092 30.472C30.156 30.472 30.2146 30.4934 30.268 30.536C30.3213 30.5787 30.348 30.6374 30.348 30.712Z" fill="url(#paint1_linear_32_231)"/>
<path d="M27.6631 12.3271L9.37497 28.3344" stroke="#F1F0F5" stroke-width="2"/>
<path d="M20 39.5C30.7696 39.5 39.5 30.7696 39.5 20C39.5 9.23045 30.7696 0.5 20 0.5C9.23045 0.5 0.5 9.23045 0.5 20C0.5 30.7696 9.23045 39.5 20 39.5Z" stroke="#F1F0F5" stroke-width="2"/>
</g>
<defs>
<linearGradient id="paint0_linear_32_231" x1="11.5" y1="8.47286" x2="22.3793" y2="21.3804" gradientUnits="userSpaceOnUse">
<stop stop-color="white"/>
<stop offset="0.6999" stop-color="white"/>
<stop offset="0.7" stop-color="#575757" stop-opacity="0"/>
<stop offset="1" stop-color="#666666" stop-opacity="0"/>
</linearGradient>
<linearGradient id="paint1_linear_32_231" x1="37" y1="25.75" x2="23.4726" y2="10.6902" gradientUnits="userSpaceOnUse">
<stop stop-color="white"/>
<stop offset="0.7249" stop-color="white"/>
<stop offset="0.725" stop-color="#575757" stop-opacity="0"/>
<stop offset="1" stop-color="#666666" stop-opacity="0"/>
</linearGradient>
<clipPath id="clip0_32_231">
<rect width="40" height="40" fill="white"/>
</clipPath>
</defs>
</svg>
