<svg width="80" height="80" viewBox="0 0 80 80" fill="none" xmlns="http://www.w3.org/2000/svg">
<path d="M44.888 25.368C44.888 25.5813 44.8347 25.784 44.728 25.976C44.6213 26.1467 44.4507 26.232 44.216 26.232C43.8747 26.232 43.64 26.1573 43.512 26.008C43.4053 25.8587 43.3093 25.6453 43.224 25.368C43.16 25.0693 43.0533 24.7067 42.904 24.28C42.776 23.832 42.6267 23.3947 42.456 22.968C42.3067 22.52 42.1467 22.1787 41.976 21.944C41.8907 21.816 41.7947 21.6987 41.688 21.592C41.5813 21.464 41.4747 21.3467 41.368 21.24C41.2187 21.048 40.952 20.92 40.568 20.856C40.184 20.7707 39.7893 20.728 39.384 20.728C38.9787 20.7067 38.6587 20.696 38.424 20.696C38.1467 20.696 37.848 20.696 37.528 20.696C37.208 20.696 36.9307 20.7707 36.696 20.92C36.4613 21.048 36.3333 21.304 36.312 21.688C36.2907 22.4133 36.28 23.16 36.28 23.928C36.28 24.6747 36.28 25.4213 36.28 26.168C36.28 28.6 36.28 31.032 36.28 33.464C36.3013 35.896 36.312 38.328 36.312 40.76C36.312 41.016 36.344 41.3147 36.408 41.656C36.4933 41.9973 36.7067 42.168 37.048 42.168C37.368 42.168 37.6773 42.1573 37.976 42.136C38.296 42.1147 38.616 42.104 38.936 42.104C39.1067 42.104 39.2347 42.1787 39.32 42.328C39.4053 42.456 39.448 42.584 39.448 42.712C39.448 43.096 39.2667 43.288 38.904 43.288C38.6693 43.288 38.424 43.2773 38.168 43.256C37.9333 43.2347 37.6987 43.2133 37.464 43.192C37.0587 43.1493 36.6533 43.128 36.248 43.128C35.8427 43.128 35.4267 43.128 35 43.128C34.296 43.128 33.592 43.128 32.888 43.128C32.184 43.128 31.48 43.1493 30.776 43.192C30.52 43.2133 30.2533 43.2347 29.976 43.256C29.72 43.2773 29.464 43.288 29.208 43.288C29.016 43.288 28.8667 43.224 28.76 43.096C28.6533 42.968 28.6 42.8187 28.6 42.648C28.6 42.4133 28.696 42.2747 28.888 42.232C29.08 42.168 29.2613 42.136 29.432 42.136C29.6667 42.136 29.88 42.1467 30.072 42.168C30.2853 42.168 30.4987 42.168 30.712 42.168C31.2667 42.168 31.576 42.04 31.64 41.784C31.7253 41.528 31.768 41.1653 31.768 40.696V22.84C31.768 22.008 31.7253 21.4533 31.64 21.176C31.5547 20.8773 31.3307 20.728 30.968 20.728C30.6053 20.7067 30.008 20.696 29.176 20.696C28.8987 20.696 28.5147 20.7067 28.024 20.728C27.5547 20.7493 27.2027 20.824 26.968 20.952C26.6907 21.1013 26.4667 21.304 26.296 21.56C26.1253 21.7947 25.9867 22.0613 25.88 22.36C25.7093 22.8507 25.5387 23.352 25.368 23.864C25.2187 24.376 25.0587 24.8773 24.888 25.368C24.8027 25.6667 24.696 25.8907 24.568 26.04C24.44 26.168 24.2053 26.232 23.864 26.232C23.4587 26.232 23.256 26.0187 23.256 25.592C23.256 25.0373 23.3093 24.408 23.416 23.704C23.544 22.9787 23.6187 22.3067 23.64 21.688C23.6613 21.3467 23.6613 21.0053 23.64 20.664C23.64 20.3013 23.672 19.96 23.736 19.64C23.7573 19.4907 23.832 19.416 23.96 19.416C24.1947 19.416 24.4293 19.448 24.664 19.512C24.92 19.576 25.1653 19.6293 25.4 19.672C25.656 19.6933 25.912 19.7147 26.168 19.736C26.4453 19.736 26.7227 19.7467 27 19.768C28.1307 19.7893 29.304 19.8107 30.52 19.832C31.7573 19.832 32.9307 19.832 34.04 19.832C35.2987 19.832 36.6213 19.8213 38.008 19.8C39.3947 19.7787 40.7173 19.768 41.976 19.768C42.104 19.768 42.232 19.768 42.36 19.768C42.5093 19.768 42.648 19.7573 42.776 19.736C43.0107 19.6933 43.2347 19.6293 43.448 19.544C43.6827 19.4587 43.9173 19.416 44.152 19.416C44.2587 19.416 44.3333 19.4693 44.376 19.576C44.44 19.8747 44.4827 20.2267 44.504 20.632C44.5253 21.016 44.5467 21.3573 44.568 21.656C44.632 22.2533 44.696 22.872 44.76 23.512C44.8453 24.1307 44.888 24.7493 44.888 25.368Z" fill="url(#paint0_linear_24_217)"/>
<path d="M60.696 61.424C60.696 61.872 60.5147 62.096 60.152 62.096C59.384 62.096 58.616 62.0853 57.848 62.064C57.1013 62.0427 56.3547 62.032 55.608 62.032C54.8827 62.032 54.1573 62.0427 53.432 62.064C52.7067 62.1067 51.9813 62.128 51.256 62.128C51.0427 62.128 50.8933 62.064 50.808 61.936C50.7227 61.7867 50.68 61.6267 50.68 61.456C50.68 61.2853 50.744 61.1573 50.872 61.072C51.0213 60.9653 51.1707 60.912 51.32 60.912C51.512 60.912 51.704 60.9227 51.896 60.944C52.088 60.9653 52.28 60.976 52.472 60.976C52.5147 60.976 52.568 60.976 52.632 60.976C52.696 60.976 52.7493 60.976 52.792 60.976C53.1547 60.9333 53.3467 60.7307 53.368 60.368C53.4107 59.984 53.432 59.664 53.432 59.408V42.768C52.216 45.7973 50.9787 48.816 49.72 51.824C48.4827 54.8107 47.2667 57.8293 46.072 60.88H43.576C42.36 57.7227 41.1013 54.5867 39.8 51.472C38.52 48.3573 37.2613 45.2213 36.024 42.064C36.024 44.9867 36.0453 47.9093 36.088 50.832C36.1307 53.7333 36.152 56.6453 36.152 59.568C36.152 59.824 36.1627 60.1333 36.184 60.496C36.2267 60.8373 36.4293 61.008 36.792 61.008C37.0693 61.008 37.336 60.9973 37.592 60.976C37.848 60.9547 38.1147 60.944 38.392 60.944C38.5413 60.944 38.6693 61.008 38.776 61.136C38.8827 61.2427 38.936 61.3707 38.936 61.52C38.936 61.6267 38.8933 61.7547 38.808 61.904C38.7227 62.032 38.616 62.096 38.488 62.096C38.104 62.096 37.72 62.0853 37.336 62.064C36.952 62.0427 36.568 62.032 36.184 62.032C35.5013 62.032 34.808 62.0427 34.104 62.064C33.4 62.0853 32.7067 62.096 32.024 62.096C31.8107 62.096 31.672 62.0427 31.608 61.936C31.544 61.808 31.512 61.648 31.512 61.456C31.512 61.2853 31.576 61.1573 31.704 61.072C31.8533 60.9867 31.992 60.944 32.12 60.944C32.312 60.944 32.504 60.9547 32.696 60.976C32.9093 60.9973 33.112 61.008 33.304 61.008C33.6667 61.008 33.9227 60.9653 34.072 60.88C34.2427 60.7733 34.328 60.5173 34.328 60.112C34.328 56.8693 34.3387 53.6267 34.36 50.384C34.4027 47.12 34.424 43.8667 34.424 40.624C34.424 40.2827 34.36 40.0373 34.232 39.888C34.1253 39.7173 33.8907 39.632 33.528 39.632C33.3147 39.632 33.1013 39.6427 32.888 39.664C32.6747 39.6853 32.4613 39.696 32.248 39.696C32.0773 39.696 31.928 39.632 31.8 39.504C31.672 39.376 31.608 39.2267 31.608 39.056C31.608 38.6507 31.8213 38.448 32.248 38.448C32.76 38.448 33.272 38.4587 33.784 38.48C34.3173 38.5013 34.84 38.512 35.352 38.512C35.9707 38.512 36.5893 38.512 37.208 38.512C37.848 38.512 38.4773 38.48 39.096 38.416L46.232 56.08C47.384 53.1573 48.5893 50.256 49.848 47.376C51.128 44.4747 52.248 41.52 53.208 38.512C53.6987 38.5333 54.1893 38.5547 54.68 38.576C55.192 38.576 55.704 38.576 56.216 38.576C56.8773 38.576 57.5387 38.5547 58.2 38.512C58.8827 38.4693 59.5547 38.448 60.216 38.448C60.3867 38.448 60.504 38.5227 60.568 38.672C60.632 38.8 60.664 38.928 60.664 39.056C60.664 39.184 60.632 39.3333 60.568 39.504C60.504 39.6533 60.3867 39.728 60.216 39.728C59.9173 39.728 59.608 39.728 59.288 39.728C58.9893 39.7067 58.6907 39.696 58.392 39.696C58.1787 39.696 58.0187 39.792 57.912 39.984C57.8267 40.1547 57.784 40.336 57.784 40.528C57.784 41.7653 57.7733 43.024 57.752 44.304C57.752 45.5627 57.752 46.8213 57.752 48.08C57.752 49.9573 57.752 51.8347 57.752 53.712C57.7733 55.5893 57.784 57.4667 57.784 59.344C57.784 59.536 57.7947 59.76 57.816 60.016C57.8587 60.272 57.9333 60.5067 58.04 60.72C58.168 60.912 58.36 61.008 58.616 61.008C58.872 61.008 59.128 60.9973 59.384 60.976C59.64 60.9547 59.9067 60.944 60.184 60.944C60.312 60.944 60.4293 60.9867 60.536 61.072C60.6427 61.1573 60.696 61.2747 60.696 61.424Z" fill="url(#paint1_linear_24_217)"/>
<line y1="-1" x2="48.6082" y2="-1" transform="matrix(-0.752473 0.658624 -0.749854 -0.661604 54.5764 23.9927)" stroke="#F1F0F5" stroke-width="2"/>
<circle cx="40" cy="40" r="39" stroke="#F1F0F5" stroke-width="2"/>
<defs>
<linearGradient id="paint0_linear_24_217" x1="23" y1="16.9457" x2="44.7587" y2="42.7607" gradientUnits="userSpaceOnUse">
<stop stop-color="white"/>
<stop offset="0.6999" stop-color="white"/>
<stop offset="0.7" stop-color="#575757" stop-opacity="0"/>
<stop offset="1" stop-color="#666666" stop-opacity="0"/>
</linearGradient>
<linearGradient id="paint1_linear_24_217" x1="74" y1="51.5" x2="46.9453" y2="21.3803" gradientUnits="userSpaceOnUse">
<stop stop-color="white"/>
<stop offset="0.7249" stop-color="white"/>
<stop offset="0.725" stop-color="#575757" stop-opacity="0"/>
<stop offset="1" stop-color="#666666" stop-opacity="0"/>
</linearGradient>
</defs>
</svg>
